<?xml version="1.0" encoding="utf-8"?>
<!-- Generator: Adobe Illustrator 22.0.1, SVG Export Plug-In . SVG Version: 6.00 Build 0)  -->
<svg version="1.1" id="Layer_1" xmlns="http://www.w3.org/2000/svg" xmlns:xlink="http://www.w3.org/1999/xlink" x="0px" y="0px"
	 viewBox="0 0 97.3 30" style="enable-background:new 0 0 97.3 30;" xml:space="preserve" width="97" height="30">
<style type="text/css">
	.st0{fill:url(#SVGID_1_);}
	.st1{fill:url(#SVGID_2_);}
	.st2{fill:url(#SVGID_3_);}
	.st3{fill:url(#SVGID_4_);}
	.st4{fill:url(#SVGID_5_);}
	.st5{fill:url(#SVGID_6_);}
	.st6{fill:url(#SVGID_7_);}
</style>
<g>
	<g>
		
			<linearGradient id="SVGID_1_" gradientUnits="userSpaceOnUse" x1="70.1105" y1="-135.1347" x2="248.548" y2="-135.1347" gradientTransform="matrix(0.5769 0 0 -0.5769 -45.9519 -59.3846)">
			<stop  offset="0" style="stop-color:#063BD7"/>
			<stop  offset="1" style="stop-color:#05A4CA"/>
		</linearGradient>
		<path class="st0" d="M9,9.2c4.5,0,7.6,2.4,8.6,6.4h-5c-0.5-1.5-1.8-2.5-3.7-2.5c-2.6,0-4.3,2-4.3,5.5S6.3,24,8.9,24
			c1.9,0,3.1-0.9,3.7-2.5h5c-1,3.9-4,6.4-8.6,6.4c-5.3-0.1-9-3.7-9-9.4S3.7,9.2,9,9.2z"/>
	</g>
	<g>
		
			<linearGradient id="SVGID_2_" gradientUnits="userSpaceOnUse" x1="70.1105" y1="-135.2689" x2="248.548" y2="-135.2689" gradientTransform="matrix(0.5769 0 0 -0.5769 -45.9519 -59.3846)">
			<stop  offset="0" style="stop-color:#063BD7"/>
			<stop  offset="1" style="stop-color:#05A4CA"/>
		</linearGradient>
		<path class="st1" d="M38.1,27.6h-4.6v-2.3c-1.1,1.5-3.1,2.5-5.4,2.5c-4.2,0-7.3-2.7-7.3-7.7V9.5h4.6v10c0,2.9,1.6,4.5,4,4.5
			c2.5,0,4.1-1.6,4.1-4.5v-10h4.6V27.6z"/>
	</g>
	<g>
		
			<linearGradient id="SVGID_3_" gradientUnits="userSpaceOnUse" x1="70.1105" y1="-130.0371" x2="248.548" y2="-130.0371" gradientTransform="matrix(0.5769 0 0 -0.5769 -45.9519 -59.3846)">
			<stop  offset="0" style="stop-color:#063BD7"/>
			<stop  offset="1" style="stop-color:#05A4CA"/>
		</linearGradient>
		<path class="st2" d="M53.2,9.2c4.6,0,8.3,3.7,8.3,9.3s-3.7,9.4-8.3,9.4c-2.8,0-4.9-1.3-6-2.9v2.6h-4.6V3.3h4.6v8.8
			C48.3,10.5,50.5,9.2,53.2,9.2z M52,13.2c-2.5,0-4.8,1.9-4.8,5.4s2.3,5.4,4.8,5.4c2.5,0,4.9-2,4.9-5.4C56.9,15,54.5,13.2,52,13.2z"
			/>
	</g>
	<g>
		
			<linearGradient id="SVGID_4_" gradientUnits="userSpaceOnUse" x1="70.1105" y1="-135.1347" x2="248.548" y2="-135.1347" gradientTransform="matrix(0.5769 0 0 -0.5769 -45.9519 -59.3846)">
			<stop  offset="0" style="stop-color:#063BD7"/>
			<stop  offset="1" style="stop-color:#05A4CA"/>
		</linearGradient>
		<rect x="64.9" y="9.5" class="st3" width="4.6" height="18.2"/>
	</g>
	<g>
		
			<linearGradient id="SVGID_5_" gradientUnits="userSpaceOnUse" x1="70.1105" y1="-135.0453" x2="248.548" y2="-135.0453" gradientTransform="matrix(0.5769 0 0 -0.5769 -45.9519 -59.3846)">
			<stop  offset="0" style="stop-color:#063BD7"/>
			<stop  offset="1" style="stop-color:#05A4CA"/>
		</linearGradient>
		<polygon class="st4" points="80.3,22 77,27.6 72.1,27.6 78.1,18.5 72.1,9.4 77.3,9.4 81,15 84.4,9.4 89.3,9.4 83.3,18.5 
			89.3,27.6 84,27.6 		"/>
	</g>
	<g>
		
			<linearGradient id="SVGID_6_" gradientUnits="userSpaceOnUse" x1="70.1105" y1="-111.0326" x2="248.548" y2="-111.0326" gradientTransform="matrix(0.5769 0 0 -0.5769 -45.9519 -59.3846)">
			<stop  offset="0" style="stop-color:#063BD7"/>
			<stop  offset="1" style="stop-color:#05A4CA"/>
		</linearGradient>
		<circle class="st5" cx="67.1" cy="4.7" r="3.1"/>
	</g>
	<g>
		
			<linearGradient id="SVGID_7_" gradientUnits="userSpaceOnUse" x1="70.1105" y1="-145.017" x2="248.548" y2="-145.017" gradientTransform="matrix(0.5769 0 0 -0.5769 -45.9519 -59.3846)">
			<stop  offset="0" style="stop-color:#063BD7"/>
			<stop  offset="1" style="stop-color:#05A4CA"/>
		</linearGradient>
		<circle class="st6" cx="93.9" cy="24.3" r="3.1"/>
	</g>
</g>
</svg>
