<?xml version="1.0" encoding="iso-8859-1"?>
<!-- Generator: Adobe Illustrator 19.0.0, SVG Export Plug-In . SVG Version: 6.00 Build 0)  -->
<svg version="1.1" id="Capa_1" xmlns="http://www.w3.org/2000/svg" xmlns:xlink="http://www.w3.org/1999/xlink" x="0px" y="0px"
	 viewBox="0 0 512 512" style="enable-background:new 0 0 512 512;" xml:space="preserve">
<g>
	<g>
		<path d="M110.933,68.267v375.467h290.133V68.267H110.933z M384,426.667H128V85.333h256V426.667z"/>
	</g>
</g>
<g>
	<g>
		<path d="M370.799,0H141.193c-16.683,0-30.259,13.577-30.259,30.268v55.066h290.133V30.268C401.067,13.577,387.49,0,370.799,0z
			 M384,68.267H128V30.268c0-7.279,5.922-13.201,13.193-13.201h229.606c7.279,0,13.201,5.922,13.201,13.201V68.267z"/>
	</g>
</g>
<g>
	<g>
		<path d="M110.933,426.667v55.066c0,16.691,13.576,30.268,30.259,30.268h229.606c16.691,0,30.268-13.576,30.268-30.268v-55.066
			H110.933z M384,481.732c0,7.279-5.922,13.201-13.201,13.201H141.193c-7.27,0-13.193-5.922-13.193-13.201v-37.999h256V481.732z"/>
	</g>
</g>
<g>
	<g>
		<path d="M256,426.667c-23.526,0-42.667,19.14-42.667,42.667C213.333,492.86,232.474,512,256,512
			c23.526,0,42.667-19.14,42.667-42.667C298.667,445.807,279.526,426.667,256,426.667z M256,494.933
			c-14.114,0-25.6-11.486-25.6-25.6s11.486-25.6,25.6-25.6s25.6,11.486,25.6,25.6S270.114,494.933,256,494.933z"/>
	</g>
</g>
<g>
	<g>
		<path d="M281.6,34.133h-51.2c-4.71,0-8.533,3.814-8.533,8.533S225.69,51.2,230.4,51.2h51.2c4.71,0,8.533-3.814,8.533-8.533
			S286.31,34.133,281.6,34.133z"/>
	</g>
</g>
<g>
	<g>
		<path d="M259.814,239.829l-68.267-34.133c-2.637-1.314-5.786-1.186-8.303,0.375c-2.509,1.562-4.045,4.301-4.045,7.262v85.333
			c0,3.234,1.826,6.187,4.719,7.637l68.267,34.133c1.203,0.597,2.509,0.896,3.814,0.896c1.562,0,3.115-0.427,4.489-1.271
			c2.509-1.562,4.045-4.301,4.045-7.262v-85.333C264.533,244.233,262.707,241.28,259.814,239.829z M247.467,318.993l-51.2-25.6
			V227.14l51.2,25.6V318.993z"/>
	</g>
</g>
<g>
	<g>
		<path d="M328.755,206.071c-2.517-1.562-5.658-1.69-8.303-0.375l-68.267,34.133c-2.893,1.451-4.719,4.403-4.719,7.637V332.8
			c0,2.961,1.536,5.7,4.045,7.262c1.374,0.845,2.927,1.271,4.489,1.271c1.306,0,2.611-0.299,3.814-0.896l68.267-34.133
			c2.893-1.451,4.719-4.403,4.719-7.637v-85.333C332.8,210.372,331.264,207.633,328.755,206.071z M315.733,293.393l-51.2,25.6
			V252.74l51.2-25.6V293.393z"/>
	</g>
</g>
<g>
	<g>
		<path d="M328.09,205.696l-68.267-34.133c-2.406-1.203-5.24-1.203-7.637,0l-68.267,34.133c-2.893,1.451-4.719,4.403-4.719,7.637
			s1.826,6.187,4.719,7.637l68.267,34.133C253.38,255.701,254.694,256,256,256s2.62-0.299,3.814-0.896l68.267-34.133
			c2.893-1.451,4.719-4.403,4.719-7.637S330.974,207.147,328.09,205.696z M256,237.926l-49.186-24.593L256,188.74l49.186,24.593
			L256,237.926z"/>
	</g>
</g>
<g>
	<g>
		<path d="M196.267,102.4h-34.133c-4.71,0-8.533,3.814-8.533,8.533v34.133c0,4.719,3.823,8.533,8.533,8.533h34.133
			c4.71,0,8.533-3.814,8.533-8.533v-34.133C204.8,106.214,200.977,102.4,196.267,102.4z M187.733,136.533h-17.067v-17.067h17.067
			V136.533z"/>
	</g>
</g>
<g>
	<g>
		<path d="M349.867,102.4h-34.133c-4.71,0-8.533,3.814-8.533,8.533v34.133c0,4.719,3.823,8.533,8.533,8.533h34.133
			c4.71,0,8.533-3.814,8.533-8.533v-34.133C358.4,106.214,354.577,102.4,349.867,102.4z M341.333,136.533h-17.067v-17.067h17.067
			V136.533z"/>
	</g>
</g>
<g>
	<g>
		<path d="M273.067,102.4h-34.133c-4.71,0-8.533,3.814-8.533,8.533v34.133c0,4.719,3.823,8.533,8.533,8.533h34.133
			c4.71,0,8.533-3.814,8.533-8.533v-34.133C281.6,106.214,277.777,102.4,273.067,102.4z M264.533,136.533h-17.067v-17.067h17.067
			V136.533z"/>
	</g>
</g>
<g>
	<g>
		<path d="M196.267,358.4h-34.133c-4.71,0-8.533,3.814-8.533,8.533v34.133c0,4.719,3.823,8.533,8.533,8.533h34.133
			c4.71,0,8.533-3.814,8.533-8.533v-34.133C204.8,362.214,200.977,358.4,196.267,358.4z M187.733,392.533h-17.067v-17.067h17.067
			V392.533z"/>
	</g>
</g>
<g>
	<g>
		<path d="M349.867,358.4h-34.133c-4.71,0-8.533,3.814-8.533,8.533v34.133c0,4.719,3.823,8.533,8.533,8.533h34.133
			c4.71,0,8.533-3.814,8.533-8.533v-34.133C358.4,362.214,354.577,358.4,349.867,358.4z M341.333,392.533h-17.067v-17.067h17.067
			V392.533z"/>
	</g>
</g>
<g>
	<g>
		<path d="M273.067,358.4h-34.133c-4.71,0-8.533,3.814-8.533,8.533v34.133c0,4.719,3.823,8.533,8.533,8.533h34.133
			c4.71,0,8.533-3.814,8.533-8.533v-34.133C281.6,362.214,277.777,358.4,273.067,358.4z M264.533,392.533h-17.067v-17.067h17.067
			V392.533z"/>
	</g>
</g>
<g>
</g>
<g>
</g>
<g>
</g>
<g>
</g>
<g>
</g>
<g>
</g>
<g>
</g>
<g>
</g>
<g>
</g>
<g>
</g>
<g>
</g>
<g>
</g>
<g>
</g>
<g>
</g>
<g>
</g>
</svg>
