<?xml version="1.0" encoding="utf-8"?>
<!-- Generator: Adobe Illustrator 22.0.1, SVG Export Plug-In . SVG Version: 6.00 Build 0)  -->
<svg version="1.1" id="Layer_1" xmlns="http://www.w3.org/2000/svg" xmlns:xlink="http://www.w3.org/1999/xlink" x="0px" y="0px"
	 viewBox="0 0 71 48" style="enable-background:new 0 0 71 48;" xml:space="preserve">
<style type="text/css">
	.st0{fill:#52C162;}
	.st1{fill:#E4EAF2;}
	.st2{fill:#434A54;}
	.st3{fill:#ED5565;}
</style>
<title>united_arab_emirates@2x</title>
<desc>Created with Sketch.</desc>
<g id="Flags" transform="translate(-747.000000, -866.000000)">
	<g id="united_arab_emirates" transform="translate(70.000000, 70.000000)">
		<g transform="translate(677.000000, 796.000000)">
			<g id="netherlands-2">
				<g id="Mozambique-2">
					<g id="Equatorial_Guinea-7">
						<path id="Shape" class="st0" d="M0.2,7.3v9h70v-9c0-3.7-3-6.6-6.6-6.6H6.9C3.2,0.6,0.2,3.6,0.2,7.3z"/>
						<polygon id="Shape_1_" class="st1" points="0.2,32 70.2,32 70.2,16.3 0.2,16.3 						"/>
						<path id="Shape_2_" class="st2" d="M0.2,41c0,3.7,3,6.6,6.6,6.6h56.7c3.7,0,6.6-3,6.6-6.6v-9h-70V41z"/>
					</g>
				</g>
			</g>
			<path id="Shape_3_" class="st3" d="M6.6,0.6C3.1,0.6,0.2,3.5,0.2,7v34.3c0,3.5,2.8,6.4,6.4,6.4h11.6v-47L6.6,0.6z"/>
		</g>
	</g>
</g>
</svg>
